<svg width="320" height="448" viewBox="0 0 320 448" fill="none" xmlns="http://www.w3.org/2000/svg">
<path d="M160 16C80.5 16 16 77.39 16 153C16 240 112 377.87 147.25 425.49C148.713 427.5 150.631 429.136 152.847 430.264C155.063 431.391 157.514 431.979 160 431.979C162.486 431.979 164.937 431.391 167.153 430.264C169.369 429.136 171.287 427.5 172.75 425.49C208 377.89 304 240.07 304 153C304 77.39 239.5 16 160 16Z" stroke="white" stroke-width="32" stroke-linecap="round" stroke-linejoin="round"/>
<path d="M160 208C186.51 208 208 186.51 208 160C208 133.49 186.51 112 160 112C133.49 112 112 133.49 112 160C112 186.51 133.49 208 160 208Z" stroke="white" stroke-width="32" stroke-linecap="round" stroke-linejoin="round"/>
</svg>
